<?xml version="1.0" encoding="UTF-8" standalone="no"?>
<!DOCTYPE svg PUBLIC "-//W3C//DTD SVG 1.1//EN" "http://www.w3.org/Graphics/SVG/1.1/DTD/svg11.dtd">
<svg width="100%" height="100%" viewBox="0 0 836 267" version="1.1" xmlns="http://www.w3.org/2000/svg" xmlns:xlink="http://www.w3.org/1999/xlink" xml:space="preserve" xmlns:serif="http://www.serif.com/" style="fill-rule:evenodd;clip-rule:evenodd;stroke-linejoin:round;stroke-miterlimit:2;">
    <g transform="matrix(1,0,0,1,-1505.809167,-1204.350417)">
        <g transform="matrix(4.166667,0,0,4.166667,0,0)">
            <g transform="matrix(1,0,0,1,367.4805,332.8099)">
                <path d="M0,13.791C0.819,13.791 1.466,13.575 1.952,13.15C2.434,12.727 2.763,12.077 2.939,11.213L2.939,5.232C2.649,5.008 2.32,4.85 1.952,4.752C1.577,4.654 1.089,4.607 0.479,4.607C-0.627,4.607 -1.495,4.975 -2.123,5.705C-2.754,6.436 -3.062,7.604 -3.062,9.209C-3.062,9.87 -3.012,10.48 -2.906,11.043C-2.802,11.604 -2.631,12.088 -2.389,12.489C-2.148,12.893 -1.829,13.208 -1.437,13.441C-1.042,13.674 -0.568,13.791 0,13.791M4.868,11.043C4.868,11.861 4.873,12.604 4.888,13.271C4.908,13.937 4.979,14.593 5.107,15.237L3.807,15.237L3.322,13.524L3.228,13.524C2.903,14.088 2.438,14.553 1.83,14.924C1.219,15.292 0.505,15.477 -0.319,15.477C-1.924,15.477 -3.116,14.971 -3.895,13.959C-4.675,12.945 -5.063,11.365 -5.063,9.209C-5.063,7.154 -4.577,5.592 -3.606,4.523C-2.631,3.453 -1.296,2.92 0.409,2.92C1.003,2.92 1.472,2.952 1.815,3.015C2.166,3.081 2.536,3.186 2.939,3.328L2.939,-1.686L4.868,-1.686L4.868,11.043Z" style="fill:rgb(29,29,27);fill-rule:nonzero;"/>
            </g>
        </g>
        <g transform="matrix(4.166667,0,0,4.166667,0,0)">
            <g transform="matrix(1,0,0,1,379.292,337.4403)">
                <path d="M0,9.063C0.449,9.063 0.846,9.004 1.202,8.881C1.556,8.762 1.859,8.61 2.113,8.424C2.373,8.241 2.587,8.036 2.758,7.809C2.923,7.584 3.052,7.369 3.131,7.159L3.131,5.159C2.902,5.144 2.671,5.131 2.442,5.124C2.209,5.116 1.984,5.111 1.755,5.111C1.256,5.111 0.771,5.139 0.298,5.196C-0.182,5.25 -0.596,5.354 -0.958,5.508C-1.317,5.66 -1.607,5.87 -1.826,6.135C-2.041,6.399 -2.145,6.735 -2.145,7.135C-2.145,7.697 -1.944,8.159 -1.548,8.52C-1.147,8.881 -0.63,9.063 0,9.063M-3.428,-0.602C-2.813,-0.97 -2.105,-1.244 -1.292,-1.423C-0.48,-1.6 0.367,-1.687 1.25,-1.687C2.084,-1.687 2.758,-1.575 3.26,-1.347C3.77,-1.123 4.152,-0.831 4.417,-0.469C4.687,-0.107 4.856,0.29 4.946,0.724C5.036,1.159 5.082,1.588 5.082,2.022C5.082,2.989 5.057,3.928 5.006,4.848C4.961,5.762 4.937,6.629 4.937,7.447C4.937,8.043 4.961,8.604 5.006,9.137C5.057,9.664 5.146,10.155 5.276,10.607L3.849,10.607L3.346,8.919L3.228,8.919C3.082,9.143 2.902,9.365 2.682,9.583C2.463,9.799 2.204,9.992 1.9,10.161C1.595,10.327 1.24,10.469 0.837,10.583C0.437,10.695 -0.022,10.75 -0.534,10.75C-1.05,10.75 -1.527,10.67 -1.966,10.51C-2.41,10.348 -2.796,10.118 -3.112,9.823C-3.433,9.524 -3.69,9.167 -3.872,8.752C-4.061,8.334 -4.15,7.859 -4.15,7.329C-4.15,6.621 -4.006,6.032 -3.716,5.555C-3.428,5.084 -3.022,4.706 -2.501,4.424C-1.977,4.143 -1.347,3.942 -0.619,3.819C0.109,3.7 0.917,3.639 1.803,3.639L2.463,3.639C2.682,3.639 2.902,3.655 3.131,3.69C3.175,3.206 3.202,2.772 3.202,2.387C3.202,1.504 3.021,0.885 2.671,0.53C2.318,0.178 1.674,0.001 0.747,0.001C0.469,0.001 0.18,0.022 -0.136,0.061C-0.45,0.104 -0.769,0.161 -1.098,0.235C-1.432,0.311 -1.746,0.404 -2.041,0.51C-2.335,0.617 -2.6,0.737 -2.822,0.866L-3.428,-0.602Z" style="fill:rgb(29,29,27);fill-rule:nonzero;"/>
            </g>
        </g>
        <g transform="matrix(4.166667,0,0,4.166667,0,0)">
            <g transform="matrix(1,0,0,1,395.749,335.6594)">
                <path d="M0,12.338L0,5.471C0,4.217 -0.18,3.275 -0.539,2.639C-0.902,2 -1.567,1.686 -2.528,1.686C-3.381,1.686 -4.084,1.915 -4.639,2.371C-5.196,2.83 -5.586,3.406 -5.805,4.094L-5.805,12.338L-7.741,12.338L-7.741,0.285L-6.389,0.285L-6.024,1.758L-5.925,1.758C-5.546,1.245 -5.027,0.821 -4.374,0.494C-3.721,0.165 -2.947,0 -2.049,0C-1.387,0 -0.813,0.073 -0.314,0.227C0.184,0.383 0.599,0.648 0.928,1.034C1.259,1.42 1.506,1.938 1.676,2.588C1.846,3.24 1.925,4.065 1.925,5.059L1.925,12.338L0,12.338Z" style="fill:rgb(29,29,27);fill-rule:nonzero;"/>
            </g>
        </g>
        <g transform="matrix(4.166667,0,0,4.166667,0,0)">
            <g transform="matrix(1,0,0,1,408.9365,335.6594)">
                <path d="M0,12.338L0,5.471C0,4.217 -0.181,3.275 -0.545,2.639C-0.909,2 -1.566,1.686 -2.536,1.686C-3.383,1.686 -4.091,1.915 -4.64,2.371C-5.197,2.83 -5.588,3.406 -5.812,4.094L-5.812,12.338L-7.74,12.338L-7.74,0.285L-6.391,0.285L-6.026,1.758L-5.932,1.758C-5.547,1.245 -5.027,0.821 -4.374,0.494C-3.726,0.165 -2.954,0 -2.05,0C-1.393,0 -0.814,0.073 -0.315,0.227C0.183,0.383 0.596,0.648 0.927,1.034C1.256,1.42 1.505,1.938 1.674,2.588C1.844,3.24 1.923,4.065 1.923,5.059L1.923,12.338L0,12.338Z" style="fill:rgb(29,29,27);fill-rule:nonzero;"/>
            </g>
        </g>
        <g transform="matrix(4.166667,0,0,4.166667,0,0)">
            <g transform="matrix(1,0,0,1,417.9316,345.1272)">
                <path d="M0,-1.371L0.677,0.942L0.798,0.942L1.333,-1.393L3.681,-9.183L5.606,-9.183L2.041,1.642C1.767,2.429 1.498,3.192 1.232,3.929C0.968,4.669 0.673,5.328 0.355,5.907C0.03,6.485 -0.33,6.946 -0.728,7.292C-1.132,7.639 -1.595,7.812 -2.129,7.812C-2.708,7.812 -3.182,7.731 -3.549,7.571L-3.212,5.907C-3.002,5.985 -2.804,6.03 -2.613,6.03C-2.164,6.03 -1.726,5.789 -1.312,5.316C-0.893,4.843 -0.549,4.026 -0.272,2.87L-5.116,-9.183L-2.902,-9.183L0,-1.371Z" style="fill:rgb(29,29,27);fill-rule:nonzero;"/>
            </g>
        </g>
        <g transform="matrix(4.166667,0,0,4.166667,0,0)">
            <g transform="matrix(1,0,0,1,436.4844,339.2241)">
                <path d="M0,5.497C0,5.016 -0.148,4.635 -0.438,4.362C-0.728,4.09 -1.084,3.861 -1.508,3.677C-1.933,3.493 -2.402,3.316 -2.906,3.146C-3.412,2.977 -3.883,2.76 -4.307,2.495C-4.73,2.23 -5.087,1.887 -5.376,1.473C-5.665,1.053 -5.811,0.491 -5.811,-0.217C-5.811,-1.373 -5.478,-2.221 -4.825,-2.758C-4.165,-3.296 -3.251,-3.565 -2.073,-3.565C-1.205,-3.565 -0.479,-3.491 0.105,-3.338C0.691,-3.182 1.203,-3.004 1.634,-2.795L1.177,-1.204C0.807,-1.38 0.362,-1.539 -0.162,-1.675C-0.681,-1.813 -1.238,-1.879 -1.839,-1.879C-2.544,-1.879 -3.063,-1.76 -3.393,-1.518C-3.721,-1.277 -3.883,-0.857 -3.883,-0.265C-3.883,0.154 -3.741,0.479 -3.453,0.712C-3.163,0.947 -2.801,1.156 -2.377,1.338C-1.952,1.522 -1.488,1.703 -0.977,1.881C-0.465,2.059 -0.008,2.289 0.416,2.578C0.846,2.867 1.203,3.234 1.491,3.677C1.781,4.117 1.922,4.701 1.922,5.424C1.922,5.937 1.842,6.418 1.674,6.87C1.506,7.32 1.244,7.707 0.888,8.027C0.537,8.35 0.1,8.601 -0.424,8.785C-0.95,8.97 -1.562,9.062 -2.262,9.062C-3.183,9.062 -3.964,8.975 -4.609,8.799C-5.249,8.621 -5.787,8.41 -6.226,8.168L-5.646,6.531C-5.27,6.741 -4.785,6.934 -4.199,7.11C-3.601,7.287 -3.001,7.377 -2.389,7.377C-1.696,7.377 -1.125,7.239 -0.681,6.969C-0.23,6.694 0,6.201 0,5.497" style="fill:rgb(29,29,27);fill-rule:nonzero;"/>
            </g>
        </g>
        <g transform="matrix(4.166667,0,0,4.166667,0,0)">
            <g transform="matrix(1,0,0,1,446.1973,351.1321)">
                <path d="M0,-13.787C-0.827,-13.787 -1.467,-13.576 -1.944,-13.148C-2.415,-12.723 -2.751,-12.078 -2.939,-11.211L-2.939,-5.232C-2.649,-5.005 -2.32,-4.834 -1.95,-4.713C-1.58,-4.592 -1.097,-4.531 -0.484,-4.531C0.62,-4.531 1.501,-4.945 2.161,-5.774C2.807,-6.601 3.128,-7.818 3.128,-9.426C3.128,-10.082 3.074,-10.683 2.966,-11.222C2.846,-11.758 2.665,-12.217 2.416,-12.596C2.166,-12.973 1.851,-13.264 1.46,-13.473C1.057,-13.683 0.578,-13.787 0,-13.787M-4.877,-15.187L-3.553,-15.187L-3.183,-13.741L-3.088,-13.741C-2.718,-14.301 -2.24,-14.732 -1.654,-15.029C-1.062,-15.326 -0.396,-15.473 0.363,-15.473C1.964,-15.473 3.163,-15.002 3.949,-14.053C4.736,-13.105 5.127,-11.553 5.127,-9.402C5.127,-8.39 4.999,-7.475 4.729,-6.665C4.475,-5.855 4.091,-5.167 3.613,-4.603C3.128,-4.043 2.544,-3.608 1.87,-3.305C1.178,-2.997 0.424,-2.846 -0.416,-2.846C-1.002,-2.846 -1.479,-2.881 -1.823,-2.955C-2.166,-3.025 -2.543,-3.15 -2.939,-3.326L-2.939,1.686L-4.877,1.686L-4.877,-15.187Z" style="fill:rgb(29,29,27);fill-rule:nonzero;"/>
            </g>
        </g>
        <g transform="matrix(4.166667,0,0,4.166667,0,0)">
            <g transform="matrix(1,0,0,1,457.5937,337.4403)">
                <path d="M0,9.063C0.45,9.063 0.848,9.004 1.205,8.881C1.561,8.762 1.863,8.61 2.119,8.424C2.382,8.241 2.591,8.036 2.76,7.809C2.927,7.584 3.056,7.369 3.135,7.159L3.135,5.159C2.907,5.144 2.678,5.131 2.443,5.124C2.213,5.116 1.984,5.111 1.756,5.111C1.265,5.111 0.773,5.139 0.303,5.196C-0.175,5.25 -0.591,5.354 -0.948,5.508C-1.311,5.66 -1.601,5.87 -1.815,6.135C-2.037,6.399 -2.146,6.735 -2.146,7.135C-2.146,7.697 -1.951,8.159 -1.541,8.52C-1.144,8.881 -0.626,9.063 0,9.063M-3.423,-0.602C-2.819,-0.97 -2.106,-1.244 -1.292,-1.423C-0.478,-1.6 0.37,-1.687 1.251,-1.687C2.093,-1.687 2.76,-1.575 3.264,-1.347C3.774,-1.123 4.157,-0.831 4.428,-0.469C4.683,-0.107 4.864,0.29 4.951,0.724C5.046,1.159 5.086,1.588 5.086,2.022C5.086,2.989 5.065,3.928 5.013,4.848C4.965,5.762 4.946,6.629 4.946,7.447C4.946,8.043 4.965,8.604 5.013,9.137C5.065,9.664 5.154,10.155 5.281,10.607L3.855,10.607L3.351,8.919L3.229,8.919C3.081,9.143 2.907,9.365 2.691,9.583C2.47,9.799 2.213,9.992 1.904,10.161C1.596,10.327 1.244,10.469 0.848,10.583C0.437,10.695 -0.02,10.75 -0.531,10.75C-1.043,10.75 -1.526,10.67 -1.971,10.51C-2.407,10.348 -2.785,10.118 -3.108,9.823C-3.431,9.524 -3.687,9.167 -3.867,8.752C-4.05,8.334 -4.15,7.859 -4.15,7.329C-4.15,6.621 -4.003,6.032 -3.713,5.555C-3.423,5.084 -3.014,4.706 -2.495,4.424C-1.971,4.143 -1.346,3.942 -0.611,3.819C0.115,3.7 0.922,3.639 1.81,3.639L2.47,3.639C2.691,3.639 2.907,3.655 3.135,3.69C3.176,3.206 3.204,2.772 3.204,2.387C3.204,1.504 3.027,0.885 2.678,0.53C2.321,0.178 1.681,0.001 0.747,0.001C0.478,0.001 0.182,0.022 -0.136,0.061C-0.45,0.104 -0.773,0.161 -1.103,0.235C-1.434,0.311 -1.741,0.404 -2.037,0.51C-2.333,0.617 -2.598,0.737 -2.819,0.866L-3.423,-0.602Z" style="fill:rgb(29,29,27);fill-rule:nonzero;"/>
            </g>
        </g>
        <g transform="matrix(4.166667,0,0,4.166667,0,0)">
            <g transform="matrix(1,0,0,1,474.0586,335.6594)">
                <path d="M0,12.338L0,5.471C0,4.217 -0.187,3.275 -0.544,2.639C-0.908,2 -1.572,1.686 -2.529,1.686C-3.377,1.686 -4.095,1.915 -4.644,2.371C-5.194,2.83 -5.585,3.406 -5.815,4.094L-5.815,12.338L-7.737,12.338L-7.737,0.285L-6.39,0.285L-6.032,1.758L-5.937,1.758C-5.544,1.245 -5.028,0.821 -4.38,0.494C-3.729,0.165 -2.956,0 -2.047,0C-1.396,0 -0.819,0.073 -0.316,0.227C0.179,0.383 0.595,0.648 0.927,1.034C1.254,1.42 1.504,1.938 1.675,2.588C1.841,3.24 1.92,4.065 1.92,5.059L1.92,12.338L0,12.338Z" style="fill:rgb(29,29,27);fill-rule:nonzero;"/>
            </g>
        </g>
        <g transform="matrix(4.166667,0,0,4.166667,0,0)">
            <g transform="matrix(1,0,0,1,483.8916,342.2595)">
                <path d="M0,4.318C0.822,4.318 1.46,4.111 1.923,3.701C2.395,3.293 2.724,2.654 2.915,1.785L2.915,-4.383C2.267,-4.689 1.455,-4.842 0.457,-4.842C-0.638,-4.842 -1.496,-4.471 -2.126,-3.733C-2.749,-2.994 -3.061,-1.837 -3.061,-0.265C-3.061,0.41 -3.004,1.031 -2.895,1.593C-2.779,2.155 -2.604,2.638 -2.363,3.04C-2.126,3.443 -1.812,3.755 -1.424,3.976C-1.039,4.204 -0.566,4.318 0,4.318M4.838,6.292C4.838,7.851 4.427,9 3.597,9.74C2.77,10.48 1.545,10.848 -0.074,10.848C-1.039,10.848 -1.817,10.787 -2.402,10.668C-2.984,10.547 -3.492,10.388 -3.908,10.197L-3.397,8.557C-3.035,8.703 -2.624,8.838 -2.167,8.966C-1.721,9.095 -1.139,9.158 -0.411,9.158C0.261,9.158 0.812,9.099 1.238,8.981C1.672,8.859 2.007,8.657 2.267,8.378C2.525,8.097 2.698,7.736 2.79,7.294C2.895,6.849 2.941,6.322 2.941,5.714L2.941,4.558L2.844,4.558C2.525,5.023 2.111,5.38 1.616,5.63C1.118,5.877 0.462,6.005 -0.337,6.005C-1.965,6.005 -3.155,5.498 -3.913,4.486C-4.682,3.47 -5.057,1.898 -5.057,-0.241C-5.057,-2.295 -4.577,-3.858 -3.592,-4.926C-2.608,-5.996 -1.164,-6.53 0.748,-6.53C1.662,-6.53 2.443,-6.459 3.097,-6.315C3.748,-6.166 4.33,-6 4.838,-5.808L4.838,6.292Z" style="fill:rgb(29,29,27);fill-rule:nonzero;"/>
            </g>
        </g>
        <g transform="matrix(4.166667,0,0,4.166667,0,0)">
            <g transform="matrix(1,0,0,1,497.0918,346.6001)">
                <path d="M0,-9.255C-0.941,-9.255 -1.705,-9.007 -2.276,-8.51C-2.844,-8.011 -3.186,-7.158 -3.296,-5.954L2.686,-5.954C2.686,-7.173 2.448,-8.031 1.983,-8.519C1.512,-9.009 0.853,-9.255 0,-9.255M4.151,0.434C3.663,0.817 3.061,1.124 2.333,1.35C1.601,1.573 0.83,1.686 0,1.686C-0.908,1.686 -1.71,1.536 -2.382,1.24C-3.056,0.942 -3.612,0.516 -4.043,-0.036C-4.479,-0.59 -4.796,-1.253 -5.011,-2.025C-5.223,-2.797 -5.322,-3.665 -5.322,-4.627C-5.322,-6.685 -4.855,-8.249 -3.949,-9.327C-3.035,-10.403 -1.726,-10.941 -0.021,-10.941C0.523,-10.941 1.075,-10.88 1.621,-10.761C2.162,-10.642 2.655,-10.413 3.087,-10.075C3.522,-9.739 3.875,-9.261 4.151,-8.643C4.427,-8.023 4.552,-7.206 4.552,-6.192C4.552,-5.665 4.511,-5.077 4.422,-4.436L-3.326,-4.436C-3.326,-3.728 -3.249,-3.103 -3.099,-2.556C-2.958,-2.008 -2.739,-1.548 -2.428,-1.169C-2.126,-0.793 -1.73,-0.503 -1.238,-0.302C-0.748,-0.101 -0.15,0.001 0.557,0.001C1.105,0.001 1.657,-0.097 2.198,-0.288C2.744,-0.484 3.147,-0.708 3.434,-0.964L4.151,0.434Z" style="fill:rgb(29,29,27);fill-rule:nonzero;"/>
            </g>
        </g>
        <g transform="matrix(4.166667,0,0,4.166667,0,0)">
            <g transform="matrix(1,0,0,1,512.4199,335.6594)">
                <path d="M0,12.338L0,5.471C0,4.217 -0.17,3.275 -0.541,2.639C-0.897,2 -1.559,1.686 -2.528,1.686C-3.376,1.686 -4.078,1.915 -4.63,2.371C-5.181,2.83 -5.574,3.406 -5.804,4.094L-5.804,12.338L-7.736,12.338L-7.736,0.285L-6.381,0.285L-6.021,1.758L-5.924,1.758C-5.533,1.245 -5.018,0.821 -4.369,0.494C-3.718,0.165 -2.944,0 -2.041,0C-1.39,0 -0.813,0.073 -0.307,0.227C0.191,0.383 0.604,0.648 0.939,1.034C1.27,1.42 1.51,1.938 1.676,2.588C1.852,3.24 1.934,4.065 1.934,5.059L1.934,12.338L0,12.338Z" style="fill:rgb(29,29,27);fill-rule:nonzero;"/>
            </g>
        </g>
        <g transform="matrix(4.166667,0,0,4.166667,0,0)">
            <g transform="matrix(1,0,0,1,522.8359,341.9931)">
                <path d="M0,-4.648C-0.801,-4.648 -1.455,-4.422 -1.949,-3.973C-2.447,-3.523 -2.807,-2.888 -3.035,-2.072L-3.035,4.004C-2.723,4.18 -2.361,4.313 -1.93,4.401C-1.482,4.491 -1.043,4.536 -0.576,4.536C0.52,4.536 1.387,4.15 2.037,3.379C2.691,2.606 3.018,1.401 3.018,-0.238C3.018,-0.863 2.961,-1.451 2.848,-1.999C2.732,-2.543 2.561,-3.011 2.314,-3.394C2.074,-3.781 1.762,-4.086 1.387,-4.312C1.01,-4.537 0.549,-4.648 0,-4.648M-4.957,-10.869L-3.035,-10.869L-3.035,-4.865L-2.936,-4.865C-2.566,-5.333 -2.096,-5.693 -1.523,-5.951C-0.961,-6.207 -0.334,-6.334 0.338,-6.334C1.896,-6.334 3.066,-5.837 3.85,-4.841C4.623,-3.844 5.014,-2.304 5.014,-0.211C5.014,1.891 4.496,3.491 3.467,4.584C2.443,5.674 0.994,6.221 -0.873,6.221C-1.771,6.221 -2.588,6.123 -3.314,5.932C-4.043,5.741 -4.594,5.531 -4.957,5.306L-4.957,-10.869Z" style="fill:rgb(29,29,27);fill-rule:nonzero;"/>
            </g>
        </g>
        <g transform="matrix(4.166667,0,0,4.166667,0,0)">
            <g transform="matrix(1,0,0,1,535.541,346.6001)">
                <path d="M0,-9.255C-0.951,-9.255 -1.709,-9.007 -2.277,-8.51C-2.854,-8.011 -3.189,-7.158 -3.295,-5.954L2.676,-5.954C2.676,-7.173 2.449,-8.031 1.977,-8.519C1.512,-9.009 0.844,-9.255 0,-9.255M4.141,0.434C3.658,0.817 3.051,1.124 2.324,1.35C1.602,1.573 0.818,1.686 0,1.686C-0.918,1.686 -1.709,1.536 -2.383,1.24C-3.064,0.942 -3.611,0.516 -4.053,-0.036C-4.479,-0.59 -4.807,-1.253 -5.014,-2.025C-5.227,-2.797 -5.322,-3.665 -5.322,-4.627C-5.322,-6.685 -4.867,-8.249 -3.953,-9.327C-3.035,-10.403 -1.725,-10.941 -0.02,-10.941C0.516,-10.941 1.07,-10.88 1.611,-10.761C2.162,-10.642 2.656,-10.413 3.082,-10.075C3.523,-9.739 3.873,-9.261 4.141,-8.643C4.416,-8.023 4.553,-7.206 4.553,-6.192C4.553,-5.665 4.506,-5.077 4.412,-4.436L-3.326,-4.436C-3.326,-3.728 -3.252,-3.103 -3.111,-2.556C-2.961,-2.008 -2.738,-1.548 -2.428,-1.169C-2.125,-0.793 -1.734,-0.503 -1.24,-0.302C-0.758,-0.101 -0.15,0.001 0.557,0.001C1.094,0.001 1.646,-0.097 2.193,-0.288C2.734,-0.484 3.145,-0.708 3.422,-0.964L4.141,0.434Z" style="fill:rgb(29,29,27);fill-rule:nonzero;"/>
            </g>
        </g>
        <g transform="matrix(4.166667,0,0,4.166667,0,0)">
            <g transform="matrix(1,0,0,1,548.8184,345.9001)">
                <path d="M0,-8.097C-0.477,-8.255 -0.939,-8.338 -1.371,-8.338C-2.057,-8.338 -2.609,-8.149 -3.008,-7.772C-3.408,-7.394 -3.658,-6.918 -3.758,-6.34L-3.758,2.097L-5.686,2.097L-5.686,-9.955L-4.338,-9.955L-3.969,-8.483L-3.875,-8.483C-3.574,-9.03 -3.207,-9.45 -2.785,-9.746C-2.354,-10.046 -1.818,-10.194 -1.154,-10.194C-0.695,-10.194 -0.166,-10.114 0.41,-9.955L0,-8.097Z" style="fill:rgb(29,29,27);fill-rule:nonzero;"/>
            </g>
        </g>
        <g transform="matrix(4.166667,0,0,4.166667,0,0)">
            <g transform="matrix(1,0,0,1,555.7148,342.2595)">
                <path d="M0,4.318C0.82,4.318 1.461,4.111 1.934,3.701C2.391,3.293 2.717,2.654 2.922,1.785L2.922,-4.383C2.27,-4.689 1.451,-4.842 0.453,-4.842C-0.629,-4.842 -1.492,-4.471 -2.121,-3.733C-2.754,-2.994 -3.055,-1.837 -3.055,-0.265C-3.055,0.41 -3.008,1.031 -2.895,1.593C-2.779,2.155 -2.604,2.638 -2.361,3.04C-2.121,3.443 -1.809,3.755 -1.418,3.976C-1.037,4.204 -0.566,4.318 0,4.318M4.844,6.292C4.844,7.851 4.428,9 3.605,9.74C2.771,10.48 1.547,10.848 -0.072,10.848C-1.037,10.848 -1.809,10.787 -2.4,10.668C-2.988,10.547 -3.486,10.388 -3.908,10.197L-3.404,8.557C-3.029,8.703 -2.619,8.838 -2.172,8.966C-1.725,9.095 -1.133,9.158 -0.416,9.158C0.264,9.158 0.814,9.099 1.246,8.981C1.668,8.859 2.012,8.657 2.26,8.378C2.516,8.097 2.697,7.736 2.797,7.294C2.891,6.849 2.941,6.322 2.941,5.714L2.941,4.558L2.842,4.558C2.516,5.023 2.115,5.38 1.607,5.63C1.117,5.877 0.463,6.005 -0.334,6.005C-1.955,6.005 -3.154,5.498 -3.918,4.486C-4.684,3.47 -5.066,1.898 -5.066,-0.241C-5.066,-2.295 -4.574,-3.858 -3.59,-4.926C-2.619,-5.996 -1.174,-6.53 0.748,-6.53C1.662,-6.53 2.441,-6.459 3.092,-6.315C3.75,-6.166 4.328,-6 4.844,-5.808L4.844,6.292Z" style="fill:rgb(29,29,27);fill-rule:nonzero;"/>
            </g>
        </g>
        <g transform="matrix(4.166667,0,0,4.166667,0,0)">
            <g transform="matrix(1,0,0,1,378.2822,294.7403)">
                <path d="M0,27.556C0.031,27.687 0.055,27.767 0.072,27.798C0.089,27.829 0.097,27.875 0.097,27.941C0.097,28.163 -0.104,28.387 -0.501,28.611C-0.9,28.833 -1.42,29.025 -2.056,29.183C-2.694,29.345 -3.421,29.48 -4.234,29.591C-5.046,29.702 -5.854,29.758 -6.65,29.758C-8.182,29.758 -9.37,29.488 -10.214,28.945C-11.06,28.403 -11.673,27.687 -12.057,26.792C-12.438,25.9 -12.662,24.911 -12.727,23.827C-12.792,22.741 -12.822,21.64 -12.822,20.525L-12.822,9.76L-16.218,9.76C-16.506,9.76 -16.69,9.71 -16.77,9.615C-16.849,9.521 -16.888,9.344 -16.888,9.089L-16.888,5.981C-16.888,5.723 -16.849,5.549 -16.77,5.453C-16.69,5.358 -16.506,5.31 -16.218,5.31L-12.822,5.31L-12.822,-0.719C-12.822,-1.04 -12.782,-1.247 -12.704,-1.339C-12.623,-1.436 -12.408,-1.516 -12.057,-1.582L-7.848,-2.155C-7.782,-2.155 -7.702,-2.163 -7.607,-2.178C-7.512,-2.193 -7.386,-2.202 -7.225,-2.202C-7.001,-2.202 -6.866,-2.137 -6.816,-2.012C-6.771,-1.881 -6.746,-1.674 -6.746,-1.389L-6.746,5.31L-1.292,5.31C-1.07,5.31 -0.877,5.333 -0.717,5.38C-0.558,5.431 -0.478,5.579 -0.478,5.835C-0.478,5.965 -0.495,6.091 -0.526,6.22L-1.146,9.04C-1.212,9.394 -1.3,9.599 -1.412,9.664C-1.523,9.728 -1.721,9.76 -2.01,9.76L-6.746,9.76L-6.746,21.337C-6.746,21.72 -6.738,22.087 -6.723,22.439C-6.708,22.79 -6.65,23.099 -6.555,23.372C-6.459,23.642 -6.301,23.857 -6.077,24.019C-5.854,24.177 -5.534,24.257 -5.118,24.257C-4.161,24.257 -3.383,24.104 -2.775,23.802C-2.17,23.499 -1.69,23.345 -1.339,23.345C-1.146,23.345 -1.021,23.443 -0.958,23.634L0,27.556Z" style="fill:rgb(29,29,27);fill-rule:nonzero;"/>
            </g>
        </g>
        <g transform="matrix(4.166667,0,0,4.166667,0,0)">
            <g transform="matrix(1,0,0,1,387.4219,312.8245)">
                <path d="M0,-1.913C0.254,-0.735 0.462,0.573 0.62,2.009C0.781,3.444 0.924,4.833 1.052,6.173L1.147,6.173C1.147,5.726 1.178,5.168 1.243,4.498C1.306,3.827 1.386,3.134 1.481,2.417C1.579,1.698 1.675,1.013 1.771,0.358C1.866,-0.296 1.961,-0.847 2.057,-1.293L4.257,-12.008C4.322,-12.361 4.402,-12.575 4.497,-12.653C4.593,-12.733 4.815,-12.774 5.165,-12.774L9.426,-12.774C9.775,-12.774 9.999,-12.733 10.095,-12.653C10.191,-12.575 10.269,-12.361 10.333,-12.008L12.439,-1.293C12.535,-0.78 12.631,-0.2 12.727,0.454C12.823,1.108 12.917,1.771 13.013,2.441C13.109,3.109 13.188,3.773 13.251,4.425C13.316,5.08 13.347,5.661 13.347,6.173L13.444,6.173C13.571,4.833 13.708,3.485 13.852,2.129C13.994,0.774 14.21,-0.573 14.498,-1.913L16.792,-12.249C16.856,-12.505 16.937,-12.726 17.033,-12.919C17.128,-13.108 17.273,-13.205 17.462,-13.205C17.558,-13.205 17.693,-13.196 17.869,-13.181C18.047,-13.165 18.165,-13.157 18.228,-13.157L21.482,-12.726C21.833,-12.663 22.095,-12.608 22.271,-12.558C22.446,-12.513 22.534,-12.407 22.534,-12.249C22.534,-12.153 22.511,-12.026 22.464,-11.864C22.414,-11.706 22.36,-11.53 22.296,-11.338L15.645,10.622C15.549,10.941 15.453,11.132 15.357,11.194C15.264,11.261 15.056,11.292 14.737,11.292L11.004,11.292C10.685,11.292 10.477,11.228 10.383,11.099C10.287,10.974 10.207,10.78 10.142,10.526L7.798,-1.628C7.639,-2.393 7.513,-3.309 7.417,-4.379C7.32,-5.446 7.239,-6.315 7.177,-6.985L7.081,-6.985C7.017,-6.315 6.905,-5.446 6.747,-4.379C6.586,-3.309 6.411,-2.393 6.22,-1.628L3.35,10.526C3.284,10.78 3.206,10.974 3.11,11.099C3.014,11.228 2.807,11.292 2.487,11.292L-1.243,11.292C-1.562,11.292 -1.771,11.261 -1.866,11.194C-1.962,11.132 -2.059,10.941 -2.154,10.622L-7.893,-11.338C-7.958,-11.499 -8.008,-11.657 -8.038,-11.819C-8.07,-11.977 -8.104,-12.119 -8.134,-12.249C-8.134,-12.407 -8.046,-12.513 -7.87,-12.558C-7.696,-12.608 -7.435,-12.663 -7.081,-12.726L-3.493,-13.157C-3.429,-13.157 -3.302,-13.165 -3.109,-13.181C-2.92,-13.196 -2.774,-13.205 -2.679,-13.205C-2.521,-13.205 -2.394,-13.108 -2.298,-12.919C-2.202,-12.726 -2.122,-12.505 -2.059,-12.249L0,-1.913Z" style="fill:rgb(29,29,27);fill-rule:nonzero;"/>
            </g>
        </g>
        <g transform="matrix(4.166667,0,0,4.166667,0,0)">
            <g transform="matrix(1,0,0,1,422.4443,319.7591)">
                <path d="M0,-26.789C0,-25.673 -0.385,-24.733 -1.15,-23.967C-1.914,-23.201 -2.84,-22.817 -3.925,-22.817C-5.041,-22.817 -5.981,-23.201 -6.747,-23.967C-7.513,-24.733 -7.894,-25.673 -7.894,-26.789C-7.894,-27.906 -7.513,-28.841 -6.747,-29.59C-5.981,-30.338 -5.041,-30.715 -3.925,-30.715C-2.84,-30.715 -1.914,-30.338 -1.15,-29.59C-0.385,-28.841 0,-27.906 0,-26.789M-0.862,3.256C-0.862,3.512 -0.901,3.688 -0.981,3.783C-1.062,3.881 -1.243,3.926 -1.532,3.926L-6.269,3.926C-6.555,3.926 -6.738,3.881 -6.818,3.783C-6.9,3.688 -6.938,3.512 -6.938,3.256L-6.938,-15.259L-10.622,-15.259C-10.91,-15.259 -11.092,-15.309 -11.172,-15.404C-11.253,-15.498 -11.291,-15.675 -11.291,-15.93L-11.291,-19.038C-11.291,-19.296 -11.253,-19.47 -11.172,-19.565C-11.092,-19.661 -10.91,-19.709 -10.622,-19.709L-1.532,-19.709C-1.243,-19.709 -1.062,-19.661 -0.981,-19.565C-0.901,-19.47 -0.862,-19.296 -0.862,-19.038L-0.862,3.256Z" style="fill:rgb(29,29,27);fill-rule:nonzero;"/>
            </g>
        </g>
        <g transform="matrix(4.166667,0,0,4.166667,0,0)">
            <g transform="matrix(1,0,0,1,443.7812,302.2497)">
                <path d="M0,19.235C0.031,19.298 0.064,19.377 0.097,19.474C0.127,19.57 0.146,19.65 0.146,19.713C0.146,20 -0.07,20.296 -0.501,20.597C-0.932,20.9 -1.482,21.173 -2.152,21.413C-2.821,21.651 -3.557,21.851 -4.353,22.009C-5.15,22.171 -5.899,22.249 -6.601,22.249C-9.952,22.249 -12.559,21.244 -14.425,19.235C-16.29,17.224 -17.223,14.181 -17.223,10.097C-17.223,8.086 -16.976,6.269 -16.483,4.641C-15.986,3.016 -15.263,1.635 -14.305,0.504C-13.348,-0.629 -12.185,-1.498 -10.812,-2.106C-9.44,-2.711 -7.862,-3.014 -6.077,-3.014C-5.437,-3.014 -4.719,-2.934 -3.923,-2.774C-3.125,-2.614 -2.384,-2.399 -1.698,-2.129C-1.013,-1.857 -0.438,-1.544 0.024,-1.194C0.486,-0.844 0.72,-0.479 0.72,-0.094C0.72,-0.032 0.7,0.041 0.67,0.122C0.64,0.199 0.607,0.272 0.574,0.335L-1.196,3.447C-1.259,3.509 -1.316,3.566 -1.362,3.613C-1.412,3.662 -1.467,3.685 -1.53,3.685C-1.658,3.685 -1.851,3.589 -2.105,3.398C-2.359,3.205 -2.678,2.99 -3.06,2.752C-3.444,2.512 -3.891,2.289 -4.402,2.082C-4.91,1.875 -5.47,1.771 -6.077,1.771C-7.702,1.771 -8.891,2.409 -9.641,3.685C-10.392,4.961 -10.764,6.987 -10.764,9.761C-10.764,12.41 -10.406,14.354 -9.687,15.597C-8.971,16.843 -7.686,17.464 -5.835,17.464C-5.23,17.464 -4.704,17.375 -4.257,17.202C-3.811,17.025 -3.429,16.843 -3.109,16.652C-2.79,16.459 -2.51,16.277 -2.271,16.101C-2.032,15.923 -1.802,15.836 -1.578,15.836C-1.451,15.836 -1.339,15.917 -1.243,16.078L0,19.235Z" style="fill:rgb(29,29,27);fill-rule:nonzero;"/>
            </g>
        </g>
        <g transform="matrix(4.166667,0,0,4.166667,0,0)">
            <g transform="matrix(1,0,0,1,460.5264,314.6883)">
                <path d="M0,-5.643C0,-6.122 -0.022,-6.671 -0.069,-7.294C-0.119,-7.917 -0.254,-8.505 -0.477,-9.065C-0.7,-9.622 -1.044,-10.085 -1.506,-10.454C-1.968,-10.818 -2.613,-11.003 -3.444,-11.003C-4.368,-11.003 -5.095,-10.789 -5.619,-10.357C-6.146,-9.926 -6.546,-9.414 -6.816,-8.826C-7.089,-8.234 -7.262,-7.636 -7.343,-7.032C-7.424,-6.423 -7.478,-5.962 -7.51,-5.643L0,-5.643ZM5.554,6.461C5.646,6.622 5.694,6.796 5.694,6.988C5.694,7.307 5.424,7.633 4.88,7.969C4.338,8.303 3.652,8.608 2.825,8.878C1.994,9.147 1.078,9.372 0.073,9.547C-0.932,9.721 -1.913,9.81 -2.87,9.81C-4.464,9.81 -5.916,9.579 -7.224,9.117C-8.532,8.655 -9.655,7.92 -10.596,6.915C-11.538,5.911 -12.27,4.628 -12.797,3.063C-13.323,1.503 -13.586,-0.382 -13.586,-2.581C-13.586,-4.496 -13.339,-6.243 -12.846,-7.82C-12.351,-9.4 -11.648,-10.755 -10.741,-11.888C-9.83,-13.021 -8.729,-13.898 -7.439,-14.517C-6.146,-15.142 -4.703,-15.453 -3.11,-15.453C-1.066,-15.453 0.576,-15.044 1.82,-14.233C3.063,-13.417 4.028,-12.374 4.714,-11.097C5.4,-9.822 5.862,-8.41 6.101,-6.863C6.342,-5.316 6.459,-3.827 6.459,-2.39C6.459,-1.945 6.388,-1.632 6.246,-1.456C6.101,-1.283 5.807,-1.193 5.359,-1.193L-7.51,-1.193C-7.51,-0.525 -7.447,0.161 -7.319,0.864C-7.191,1.566 -6.936,2.211 -6.554,2.801C-6.17,3.393 -5.638,3.87 -4.949,4.237C-4.264,4.602 -3.364,4.786 -2.247,4.786C-1.386,4.786 -0.62,4.706 0.05,4.547C0.719,4.387 1.309,4.206 1.82,3.998C2.328,3.79 2.752,3.608 3.087,3.448C3.421,3.29 3.669,3.209 3.829,3.209C4.053,3.209 4.227,3.335 4.356,3.59L5.554,6.461Z" style="fill:rgb(29,29,27);fill-rule:nonzero;"/>
            </g>
        </g>
        <g transform="matrix(4.166667,0,0,4.166667,0,0)">
            <g transform="matrix(1,0,0,1,477.8496,312.8245)">
                <path d="M0,-1.913C0.255,-0.735 0.459,0.573 0.618,2.009C0.781,3.444 0.924,4.833 1.052,6.173L1.144,6.173C1.144,5.726 1.18,5.168 1.24,4.498C1.302,3.827 1.384,3.134 1.48,2.417C1.577,1.698 1.675,1.013 1.767,0.358C1.863,-0.296 1.96,-0.847 2.053,-1.293L4.258,-12.008C4.319,-12.361 4.4,-12.575 4.493,-12.653C4.59,-12.733 4.814,-12.774 5.167,-12.774L9.425,-12.774C9.771,-12.774 9.996,-12.733 10.094,-12.653C10.19,-12.575 10.267,-12.361 10.333,-12.008L12.437,-1.293C12.534,-0.78 12.631,-0.2 12.728,0.454C12.819,1.108 12.917,1.771 13.014,2.441C13.105,3.109 13.188,3.773 13.249,4.425C13.315,5.08 13.346,5.661 13.346,6.173L13.442,6.173C13.57,4.833 13.708,3.485 13.851,2.129C13.994,0.774 14.208,-0.573 14.494,-1.913L16.792,-12.249C16.853,-12.505 16.935,-12.726 17.031,-12.919C17.124,-13.108 17.271,-13.205 17.461,-13.205C17.558,-13.205 17.69,-13.196 17.869,-13.181C18.043,-13.165 18.165,-13.157 18.227,-13.157L21.483,-12.726C21.831,-12.663 22.097,-12.608 22.27,-12.558C22.443,-12.513 22.53,-12.407 22.53,-12.249C22.53,-12.153 22.51,-12.026 22.464,-11.864C22.413,-11.706 22.356,-11.53 22.296,-11.338L15.643,10.622C15.546,10.941 15.449,11.132 15.357,11.194C15.26,11.261 15.056,11.292 14.734,11.292L11.002,11.292C10.681,11.292 10.477,11.228 10.379,11.099C10.287,10.974 10.206,10.78 10.14,10.526L7.796,-1.628C7.638,-2.393 7.51,-3.309 7.413,-4.379C7.321,-5.446 7.239,-6.315 7.178,-6.985L7.081,-6.985C7.015,-6.315 6.902,-5.446 6.744,-4.379C6.586,-3.309 6.412,-2.393 6.219,-1.628L3.349,10.526C3.282,10.78 3.206,10.974 3.109,11.099C3.012,11.228 2.803,11.292 2.486,11.292L-1.246,11.292C-1.562,11.292 -1.771,11.261 -1.868,11.194C-1.966,11.132 -2.058,10.941 -2.154,10.622L-7.894,-11.338C-7.96,-11.499 -8.011,-11.657 -8.041,-11.819C-8.071,-11.977 -8.107,-12.119 -8.138,-12.249C-8.138,-12.407 -8.046,-12.513 -7.873,-12.558C-7.699,-12.608 -7.434,-12.663 -7.081,-12.726L-3.497,-13.157C-3.431,-13.157 -3.304,-13.165 -3.109,-13.181C-2.92,-13.196 -2.777,-13.205 -2.681,-13.205C-2.522,-13.205 -2.395,-13.108 -2.298,-12.919C-2.2,-12.726 -2.124,-12.505 -2.058,-12.249L0,-1.913Z" style="fill:rgb(29,29,27);fill-rule:nonzero;"/>
            </g>
        </g>
        <g transform="matrix(4.166667,0,0,4.166667,0,0)">
            <g transform="matrix(1,0,0,1,514.9766,310.7661)">
                <path d="M0,2.202L-1.578,2.202C-2.314,2.202 -3.064,2.312 -3.829,2.536C-4.595,2.759 -5.274,3.136 -5.861,3.661C-6.453,4.187 -6.75,4.976 -6.75,6.03C-6.75,6.954 -6.453,7.727 -5.861,8.35C-5.274,8.972 -4.514,9.282 -3.589,9.282C-2.697,9.282 -1.945,9.052 -1.342,8.59C-0.734,8.128 -0.291,7.751 0,7.466L0,2.202ZM2.916,13.542C2.818,13.573 2.717,13.612 2.604,13.662C2.492,13.708 2.389,13.732 2.297,13.732C2.201,13.732 2.084,13.636 1.936,13.446C1.793,13.253 1.66,13.015 1.531,12.727C1.398,12.442 1.281,12.13 1.17,11.796C1.057,11.46 0.971,11.149 0.908,10.86C0.654,11.118 0.357,11.405 0.021,11.722C-0.311,12.042 -0.73,12.354 -1.221,12.657C-1.715,12.959 -2.299,13.213 -2.967,13.423C-3.636,13.628 -4.422,13.732 -5.31,13.732C-7.516,13.732 -9.262,13.069 -10.548,11.746C-11.845,10.425 -12.488,8.628 -12.488,6.365C-12.488,5.026 -12.269,3.893 -11.819,2.968C-11.375,2.044 -10.793,1.278 -10.073,0.67C-9.358,0.065 -8.547,-0.398 -7.658,-0.716C-6.765,-1.035 -5.856,-1.267 -4.932,-1.409C-4.003,-1.555 -3.109,-1.64 -2.248,-1.675C-1.389,-1.705 -0.639,-1.721 0,-1.721L0,-3.205C0,-3.745 -0.035,-4.234 -0.098,-4.664C-0.164,-5.095 -0.311,-5.47 -0.551,-5.788C-0.791,-6.108 -1.133,-6.347 -1.578,-6.505C-2.027,-6.665 -2.635,-6.745 -3.4,-6.745C-4.069,-6.745 -4.723,-6.673 -5.361,-6.531C-5.999,-6.386 -6.592,-6.22 -7.128,-6.027C-7.674,-5.835 -8.139,-5.669 -8.517,-5.527C-8.899,-5.382 -9.17,-5.312 -9.328,-5.312C-9.461,-5.312 -9.563,-5.366 -9.64,-5.478C-9.721,-5.588 -9.777,-5.693 -9.813,-5.788L-10.768,-8.706C-10.859,-8.898 -10.91,-9.091 -10.91,-9.279C-10.91,-9.568 -10.646,-9.839 -10.119,-10.095C-9.594,-10.349 -8.919,-10.587 -8.087,-10.812C-7.26,-11.034 -6.352,-11.21 -5.361,-11.338C-4.37,-11.466 -3.416,-11.53 -2.492,-11.53C0.506,-11.53 2.629,-10.868 3.875,-9.544C5.115,-8.222 5.738,-6.316 5.738,-3.827L5.738,5.407C5.738,6.556 5.805,7.481 5.934,8.181C6.061,8.886 6.203,9.451 6.361,9.883C6.525,10.31 6.662,10.656 6.791,10.91C6.918,11.164 6.984,11.405 6.984,11.626C6.984,11.787 6.842,11.931 6.557,12.057L2.916,13.542Z" style="fill:rgb(29,29,27);fill-rule:nonzero;"/>
            </g>
        </g>
        <g transform="matrix(4.166667,0,0,4.166667,0,0)">
            <g transform="matrix(1,0,0,1,533.2539,299.906)">
                <path d="M0,23.109C0,23.365 -0.041,23.541 -0.123,23.636C-0.199,23.734 -0.383,23.779 -0.668,23.779L-5.406,23.779C-5.691,23.779 -5.875,23.734 -5.957,23.636C-6.035,23.541 -6.08,23.365 -6.08,23.109L-6.08,8.66C-6.08,7.353 -6.141,6.292 -6.27,5.478C-6.396,4.665 -6.539,4.005 -6.697,3.493C-6.861,2.982 -7.004,2.586 -7.127,2.297C-7.26,2.008 -7.32,1.724 -7.32,1.435C-7.32,1.277 -7.178,1.134 -6.893,1.004L-3.252,-0.478C-3.16,-0.51 -3.059,-0.551 -2.939,-0.598C-2.834,-0.647 -2.73,-0.67 -2.635,-0.67C-2.506,-0.67 -2.344,-0.551 -2.154,-0.312C-1.965,-0.071 -1.787,0.233 -1.629,0.599C-1.471,0.965 -1.316,1.373 -1.174,1.82C-1.031,2.266 -0.924,2.697 -0.863,3.11C-0.639,2.824 -0.352,2.472 0,2.058C0.348,1.642 0.766,1.227 1.24,0.815C1.721,0.399 2.271,0.048 2.895,-0.239C3.518,-0.526 4.238,-0.67 5.07,-0.67C5.77,-0.67 6.412,-0.567 6.984,-0.36C7.557,-0.151 7.848,0.111 7.848,0.431C7.848,0.623 7.816,0.783 7.75,0.911L6.27,4.929C6.234,4.994 6.187,5.08 6.121,5.191C6.061,5.302 5.979,5.36 5.883,5.36C5.723,5.36 5.443,5.272 5.049,5.095C4.646,4.922 4.176,4.834 3.635,4.834C3.252,4.834 2.881,4.922 2.512,5.095C2.145,5.272 1.803,5.478 1.48,5.717C1.164,5.957 0.879,6.214 0.623,6.484C0.363,6.754 0.158,6.969 0,7.13L0,23.109Z" style="fill:rgb(29,29,27);fill-rule:nonzero;"/>
            </g>
        </g>
        <g transform="matrix(4.166667,0,0,4.166667,0,0)">
            <g transform="matrix(1,0,0,1,555.3555,314.6883)">
                <path d="M0,-5.643C0,-6.122 -0.025,-6.671 -0.07,-7.294C-0.117,-7.917 -0.256,-8.505 -0.48,-9.065C-0.699,-9.622 -1.041,-10.085 -1.506,-10.454C-1.965,-10.818 -2.613,-11.003 -3.445,-11.003C-4.369,-11.003 -5.096,-10.789 -5.621,-10.357C-6.146,-9.926 -6.545,-9.414 -6.816,-8.826C-7.092,-8.234 -7.266,-7.636 -7.342,-7.032C-7.424,-6.423 -7.479,-5.962 -7.51,-5.643L0,-5.643ZM5.555,6.461C5.646,6.622 5.693,6.796 5.693,6.988C5.693,7.307 5.422,7.633 4.881,7.969C4.34,8.303 3.65,8.608 2.824,8.878C1.992,9.147 1.078,9.372 0.072,9.547C-0.934,9.721 -1.914,9.81 -2.869,9.81C-4.467,9.81 -5.916,9.579 -7.225,9.117C-8.531,8.655 -9.654,7.92 -10.594,6.915C-11.537,5.911 -12.268,4.628 -12.799,3.063C-13.324,1.503 -13.586,-0.382 -13.586,-2.581C-13.586,-4.496 -13.34,-6.243 -12.846,-7.82C-12.35,-9.4 -11.65,-10.755 -10.742,-11.888C-9.828,-13.021 -8.73,-13.898 -7.437,-14.517C-6.146,-15.142 -4.701,-15.453 -3.109,-15.453C-1.066,-15.453 0.578,-15.044 1.818,-14.233C3.064,-13.417 4.029,-12.374 4.713,-11.097C5.402,-9.822 5.861,-8.41 6.102,-6.863C6.342,-5.316 6.459,-3.827 6.459,-2.39C6.459,-1.945 6.387,-1.632 6.244,-1.456C6.102,-1.283 5.805,-1.193 5.361,-1.193L-7.51,-1.193C-7.51,-0.525 -7.449,0.161 -7.32,0.864C-7.193,1.566 -6.937,2.211 -6.555,2.801C-6.172,3.393 -5.637,3.87 -4.951,4.237C-4.264,4.602 -3.363,4.786 -2.246,4.786C-1.389,4.786 -0.623,4.706 0.051,4.547C0.721,4.387 1.307,4.206 1.818,3.998C2.328,3.79 2.752,3.608 3.09,3.448C3.422,3.29 3.666,3.209 3.83,3.209C4.055,3.209 4.229,3.335 4.355,3.59L5.555,6.461Z" style="fill:rgb(29,29,27);fill-rule:nonzero;"/>
            </g>
        </g>
    </g>
</svg>
